<?xml version="1.0" encoding="UTF-8"?>
<svg width="71px" height="28px" viewBox="0 0 71 28" version="1.1" xmlns="http://www.w3.org/2000/svg" xmlns:xlink="http://www.w3.org/1999/xlink">
    <!-- Generator: Sketch 63.1 (92452) - https://sketch.com -->
    <title>Group 4</title>
    <desc>Created with Sketch.</desc>
    <g id="design" stroke="none" stroke-width="1" fill="none" fill-rule="evenodd">
        <g id="desktop-landing-01" transform="translate(-49.000000, -21.000000)">
            <g id="Group-4" transform="translate(49.462000, 21.934000)">
                <path d="M2.17,12.866 L2.17,9.24 C2.674,9.884 3.416,10.262 4.438,10.262 C6.314,10.262 7.854,8.652 7.854,6.566 C7.854,4.48 6.314,2.87 4.438,2.87 C3.416,2.87 2.674,3.248 2.17,3.892 L2.17,3.066 L0.364,3.066 L0.364,12.866 L2.17,12.866 Z M4.102,8.54 C2.996,8.54 2.17,7.742 2.17,6.566 C2.17,5.39 2.996,4.592 4.102,4.592 C5.222,4.592 6.048,5.39 6.048,6.566 C6.048,7.742 5.222,8.54 4.102,8.54 Z M12.166,10.262 C13.188,10.262 13.944,9.87 14.448,9.24 L14.448,10.066 L16.254,10.066 L16.254,3.066 L14.448,3.066 L14.448,3.892 C13.944,3.262 13.188,2.87 12.166,2.87 C10.304,2.87 8.764,4.48 8.764,6.566 C8.764,8.652 10.304,10.262 12.166,10.262 Z M12.502,8.54 C11.396,8.54 10.57,7.742 10.57,6.566 C10.57,5.39 11.396,4.592 12.502,4.592 C13.622,4.592 14.448,5.39 14.448,6.566 C14.448,7.742 13.622,8.54 12.502,8.54 Z M19.698,10.066 L19.698,6.286 C19.698,5.068 20.356,4.55 21.238,4.55 C22.05,4.55 22.624,5.04 22.624,5.992 L22.624,10.066 L24.43,10.066 L24.43,5.768 C24.43,3.906 23.268,2.87 21.784,2.87 C20.846,2.87 20.118,3.22 19.698,3.85 L19.698,3.066 L17.892,3.066 L17.892,10.066 L19.698,10.066 Z M29.008,10.262 C30.03,10.262 30.772,9.884 31.276,9.24 L31.276,10.066 L33.082,10.066 L33.082,0.266 L31.276,0.266 L31.276,3.892 C30.772,3.248 30.03,2.87 29.008,2.87 C27.132,2.87 25.592,4.48 25.592,6.566 C25.592,8.652 27.132,10.262 29.008,10.262 Z M29.344,8.54 C28.224,8.54 27.398,7.742 27.398,6.566 C27.398,5.39 28.224,4.592 29.344,4.592 C30.45,4.592 31.276,5.39 31.276,6.566 C31.276,7.742 30.45,8.54 29.344,8.54 Z M38.206,10.262 C39.55,10.262 40.6,9.716 41.258,8.764 L39.802,7.924 C39.494,8.33 38.934,8.624 38.234,8.624 C37.282,8.624 36.512,8.232 36.26,7.308 L41.538,7.308 C41.58,7.07 41.608,6.832 41.608,6.566 C41.608,4.508 40.138,2.87 38.066,2.87 C35.868,2.87 34.37,4.48 34.37,6.566 C34.37,8.652 35.854,10.262 38.206,10.262 Z M39.802,5.908 L36.232,5.908 C36.442,5.012 37.1,4.494 38.066,4.494 C38.822,4.494 39.578,4.9 39.802,5.908 Z M44.674,10.066 L44.674,6.132 C44.674,5.082 45.22,4.55 45.99,4.55 C46.746,4.55 47.166,5.054 47.166,5.88 L47.166,10.066 L48.972,10.066 L48.972,6.132 C48.972,5.082 49.476,4.55 50.274,4.55 C51.03,4.55 51.45,5.054 51.45,5.88 L51.45,10.066 L53.256,10.066 L53.256,5.754 C53.256,4.004 52.206,2.87 50.61,2.87 C49.658,2.87 48.958,3.248 48.524,3.878 C48.132,3.234 47.488,2.87 46.62,2.87 C45.724,2.87 45.066,3.22 44.674,3.808 L44.674,3.066 L42.868,3.066 L42.868,10.066 L44.674,10.066 Z M55.692,2.226 C56.308,2.226 56.812,1.722 56.812,1.12 C56.812,0.518 56.308,8.52651283e-14 55.692,8.52651283e-14 C55.09,8.52651283e-14 54.586,0.518 54.586,1.12 C54.586,1.722 55.09,2.226 55.692,2.226 Z M56.602,10.066 L56.602,3.066 L54.796,3.066 L54.796,10.066 L56.602,10.066 Z M61.586,10.262 C62.958,10.262 64.148,9.534 64.75,8.442 L63.182,7.546 C62.902,8.12 62.3,8.47 61.572,8.47 C60.494,8.47 59.696,7.672 59.696,6.566 C59.696,5.446 60.494,4.648 61.572,4.648 C62.286,4.648 62.888,5.012 63.168,5.586 L64.722,4.676 C64.148,3.598 62.958,2.87 61.586,2.87 C59.458,2.87 57.89,4.48 57.89,6.566 C57.89,8.652 59.458,10.262 61.586,10.262 Z M3.836,26.262 C5.18,26.262 6.23,25.716 6.888,24.764 L5.432,23.924 C5.124,24.33 4.564,24.624 3.864,24.624 C2.912,24.624 2.142,24.232 1.89,23.308 L7.168,23.308 C7.21,23.07 7.238,22.832 7.238,22.566 C7.238,20.508 5.768,18.87 3.696,18.87 C1.498,18.87 0,20.48 0,22.566 C0,24.652 1.484,26.262 3.836,26.262 Z M5.432,21.908 L1.862,21.908 C2.072,21.012 2.73,20.494 3.696,20.494 C4.452,20.494 5.208,20.9 5.432,21.908 Z M11.082,26.262 C12.58,26.262 13.896,25.534 13.896,24.022 C13.896,21.446 10.284,22.09 10.284,21.054 C10.284,20.676 10.648,20.48 11.096,20.48 C11.614,20.48 12.006,20.746 12.216,21.194 L13.756,20.354 C13.21,19.388 12.23,18.87 11.096,18.87 C9.654,18.87 8.436,19.668 8.436,21.096 C8.436,23.56 12.048,23 12.048,24.022 C12.048,24.428 11.656,24.624 11.082,24.624 C10.382,24.624 9.906,24.288 9.71,23.714 L8.142,24.596 C8.646,25.674 9.682,26.262 11.082,26.262 Z M19.252,26.066 L19.252,24.428 C18.216,24.484 17.67,24.47 17.67,23.714 L17.67,20.802 L19.252,20.802 L19.252,19.066 L17.67,19.066 L17.67,17.106 L15.864,17.652 L15.864,19.066 L14.646,19.066 L14.646,20.802 L15.864,20.802 L15.864,23.714 C15.864,25.604 16.718,26.346 19.252,26.066 Z M21.822,18.226 C22.438,18.226 22.942,17.722 22.942,17.12 C22.942,16.518 22.438,16 21.822,16 C21.22,16 20.716,16.518 20.716,17.12 C20.716,17.722 21.22,18.226 21.822,18.226 Z M22.732,26.066 L22.732,19.066 L20.926,19.066 L20.926,26.066 L22.732,26.066 Z M26.59,26.066 L26.59,22.132 C26.59,21.082 27.136,20.55 27.906,20.55 C28.662,20.55 29.082,21.054 29.082,21.88 L29.082,26.066 L30.888,26.066 L30.888,22.132 C30.888,21.082 31.392,20.55 32.19,20.55 C32.946,20.55 33.366,21.054 33.366,21.88 L33.366,26.066 L35.172,26.066 L35.172,21.754 C35.172,20.004 34.122,18.87 32.526,18.87 C31.574,18.87 30.874,19.248 30.44,19.878 C30.048,19.234 29.404,18.87 28.536,18.87 C27.64,18.87 26.982,19.22 26.59,19.808 L26.59,19.066 L24.784,19.066 L24.784,26.066 L26.59,26.066 Z M40.15,26.262 C41.172,26.262 41.928,25.87 42.432,25.24 L42.432,26.066 L44.238,26.066 L44.238,19.066 L42.432,19.066 L42.432,19.892 C41.928,19.262 41.172,18.87 40.15,18.87 C38.288,18.87 36.748,20.48 36.748,22.566 C36.748,24.652 38.288,26.262 40.15,26.262 Z M40.486,24.54 C39.38,24.54 38.554,23.742 38.554,22.566 C38.554,21.39 39.38,20.592 40.486,20.592 C41.606,20.592 42.432,21.39 42.432,22.566 C42.432,23.742 41.606,24.54 40.486,24.54 Z M50.28,26.066 L50.28,24.428 C49.244,24.484 48.698,24.47 48.698,23.714 L48.698,20.802 L50.28,20.802 L50.28,19.066 L48.698,19.066 L48.698,17.106 L46.892,17.652 L46.892,19.066 L45.674,19.066 L45.674,20.802 L46.892,20.802 L46.892,23.714 C46.892,25.604 47.746,26.346 50.28,26.066 Z M55.076,26.262 C57.134,26.262 58.786,24.652 58.786,22.566 C58.786,20.48 57.134,18.87 55.076,18.87 C53.018,18.87 51.38,20.48 51.38,22.566 C51.38,24.652 53.018,26.262 55.076,26.262 Z M55.076,24.498 C54.012,24.498 53.186,23.7 53.186,22.566 C53.186,21.432 54.012,20.634 55.076,20.634 C56.154,20.634 56.98,21.432 56.98,22.566 C56.98,23.7 56.154,24.498 55.076,24.498 Z M62.266,26.066 L62.266,22.72 C62.266,21.25 63.456,20.83 64.394,20.942 L64.394,18.926 C63.512,18.926 62.63,19.318 62.266,20.27 L62.266,19.066 L60.46,19.066 L60.46,26.066 L62.266,26.066 Z" id="pandemicestimator" fill="#FFFFFF" fill-rule="nonzero"></path>
                <polygon id="Path-5" fill="#479CFF" points="66.538 16.066 70.538 16.066 70.538 20.066 68.538 18.066"></polygon>
            </g>
        </g>
    </g>
</svg>